<svg xmlns="http://www.w3.org/2000/svg" width="24" height="24" fill="currentColor" viewBox="0 0 24 24">
  <path d="M8.597 3.2A1 1 0 0 0 7.04 4.289a3.49 3.49 0 0 1 .057 1.795 3.448 3.448 0 0 1-.84 1.575.999.999 0 0 0-.077.094c-.596.817-3.96 5.6-.942 10.762l.031.049a7.73 7.73 0 0 0 2.917 2.602 7.617 7.617 0 0 0 3.772.829 8.06 8.06 0 0 0 3.985-.975 8.185 8.185 0 0 0 3.04-2.864c1.302-2.2 1.185-4.556.59-6.441-.585-1.848-1.681-3.414-2.608-4.102a1 1 0 0 0-1.595.757c-.066 1.431-.362 2.551-.793 3.431-.222-2.407-1.128-4.196-2.225-5.524-1.146-1.39-2.563-2.3-3.322-2.788a8.487 8.487 0 0 1-.432-.287Z"/>
</svg>
